<?xml version="1.0" encoding="UTF-8" standalone="no"?>
<!DOCTYPE svg PUBLIC "-//W3C//DTD SVG 1.1//EN"
 "http://www.w3.org/Graphics/SVG/1.1/DTD/svg11.dtd">
<!-- Generated by graphviz version 14.1.4 (20260321.0153)
 -->
<!-- Title: ERD Pages: 1 -->
<svg width="952pt" height="1464pt"
 viewBox="0.00 0.00 952.00 1464.00" xmlns="http://www.w3.org/2000/svg" xmlns:xlink="http://www.w3.org/1999/xlink">
<g id="graph0" class="graph" transform="scale(1 1) rotate(0) translate(25.2 1438.83)">
<title>ERD</title>
<polygon fill="white" stroke="none" points="-25.2,25.2 -25.2,-1438.83 927.2,-1438.83 927.2,25.2 -25.2,25.2"/>
<text xml:space="preserve" text-anchor="middle" x="451" y="-1390.62" font-family="Arial" font-size="20.00">ERD · Интеллектуальная панель управления серверами</text>
<text xml:space="preserve" text-anchor="middle" x="451" y="-1367.38" font-family="Arial" font-size="20.00">PK — первичный ключ; FK — внешний ключ; UK — уникальное поле; ? — допускается NULL</text>
<text xml:space="preserve" text-anchor="middle" x="451" y="-1344.12" font-family="Arial" font-size="20.00">Связь: родитель 1 (или 0..1) → дочерние записи 0..N</text>
<!-- roles -->
<g id="node1" class="node">
<title>roles</title>
<polygon fill="#123b62" stroke="none" points="27.38,-1159 27.38,-1190.75 207.88,-1190.75 207.88,-1159 27.38,-1159"/>
<polygon fill="none" stroke="black" points="27.38,-1159 27.38,-1190.75 207.88,-1190.75 207.88,-1159 27.38,-1159"/>
<text xml:space="preserve" text-anchor="start" x="101.5" y="-1170.45" font-family="Arial" font-weight="bold" font-size="14.00" fill="white">roles</text>
<polygon fill="none" stroke="black" points="27.38,-1127.25 27.38,-1159 95.12,-1159 95.12,-1127.25 27.38,-1127.25"/>
<text xml:space="preserve" text-anchor="start" x="35.38" y="-1138.25" font-family="Arial" font-size="14.00">PK id</text>
<polygon fill="none" stroke="black" points="95.12,-1127.25 95.12,-1159 207.88,-1159 207.88,-1127.25 95.12,-1127.25"/>
<text xml:space="preserve" text-anchor="start" x="103.12" y="-1138.25" font-family="Arial" font-size="14.00">BIGINT</text>
<polygon fill="none" stroke="black" points="27.38,-1095.5 27.38,-1127.25 95.12,-1127.25 95.12,-1095.5 27.38,-1095.5"/>
<text xml:space="preserve" text-anchor="start" x="35.38" y="-1106.5" font-family="Arial" font-size="14.00">UK code</text>
<polygon fill="none" stroke="black" points="95.12,-1095.5 95.12,-1127.25 207.88,-1127.25 207.88,-1095.5 95.12,-1095.5"/>
<text xml:space="preserve" text-anchor="start" x="103.12" y="-1106.5" font-family="Arial" font-size="14.00">VARCHAR(20)</text>
<polygon fill="none" stroke="black" points="27.38,-1063.75 27.38,-1095.5 95.12,-1095.5 95.12,-1063.75 27.38,-1063.75"/>
<text xml:space="preserve" text-anchor="start" x="35.38" y="-1074.75" font-family="Arial" font-size="14.00">name</text>
<polygon fill="none" stroke="black" points="95.12,-1063.75 95.12,-1095.5 207.88,-1095.5 207.88,-1063.75 95.12,-1063.75"/>
<text xml:space="preserve" text-anchor="start" x="103.12" y="-1074.75" font-family="Arial" font-size="14.00">VARCHAR(100)</text>
</g>
<!-- users -->
<g id="node2" class="node">
<title>users</title>
<polygon fill="#123b62" stroke="none" points="322.88,-1175.5 322.88,-1207.25 546.12,-1207.25 546.12,-1175.5 322.88,-1175.5"/>
<polygon fill="none" stroke="black" points="322.88,-1175.5 322.88,-1207.25 546.12,-1207.25 546.12,-1175.5 322.88,-1175.5"/>
<text xml:space="preserve" text-anchor="start" x="416.5" y="-1186.95" font-family="Arial" font-weight="bold" font-size="14.00" fill="white">users</text>
<polygon fill="none" stroke="black" points="322.88,-1143.75 322.88,-1175.5 433.38,-1175.5 433.38,-1143.75 322.88,-1143.75"/>
<text xml:space="preserve" text-anchor="start" x="330.88" y="-1154.75" font-family="Arial" font-size="14.00">PK id</text>
<polygon fill="none" stroke="black" points="433.38,-1143.75 433.38,-1175.5 546.12,-1175.5 546.12,-1143.75 433.38,-1143.75"/>
<text xml:space="preserve" text-anchor="start" x="441.38" y="-1154.75" font-family="Arial" font-size="14.00">BIGINT</text>
<polygon fill="none" stroke="black" points="322.88,-1112 322.88,-1143.75 433.38,-1143.75 433.38,-1112 322.88,-1112"/>
<text xml:space="preserve" text-anchor="start" x="330.88" y="-1123" font-family="Arial" font-size="14.00">FK role_id</text>
<polygon fill="none" stroke="black" points="433.38,-1112 433.38,-1143.75 546.12,-1143.75 546.12,-1112 433.38,-1112"/>
<text xml:space="preserve" text-anchor="start" x="441.38" y="-1123" font-family="Arial" font-size="14.00">BIGINT</text>
<polygon fill="none" stroke="black" points="322.88,-1080.25 322.88,-1112 433.38,-1112 433.38,-1080.25 322.88,-1080.25"/>
<text xml:space="preserve" text-anchor="start" x="330.88" y="-1091.25" font-family="Arial" font-size="14.00">UK email</text>
<polygon fill="none" stroke="black" points="433.38,-1080.25 433.38,-1112 546.12,-1112 546.12,-1080.25 433.38,-1080.25"/>
<text xml:space="preserve" text-anchor="start" x="441.38" y="-1091.25" font-family="Arial" font-size="14.00">VARCHAR(254)</text>
<polygon fill="none" stroke="black" points="322.88,-1048.5 322.88,-1080.25 433.38,-1080.25 433.38,-1048.5 322.88,-1048.5"/>
<text xml:space="preserve" text-anchor="start" x="330.88" y="-1059.5" font-family="Arial" font-size="14.00">password_hash</text>
<polygon fill="none" stroke="black" points="433.38,-1048.5 433.38,-1080.25 546.12,-1080.25 546.12,-1048.5 433.38,-1048.5"/>
<text xml:space="preserve" text-anchor="start" x="441.38" y="-1059.5" font-family="Arial" font-size="14.00">TEXT</text>
<polygon fill="none" stroke="black" points="322.88,-1016.75 322.88,-1048.5 433.38,-1048.5 433.38,-1016.75 322.88,-1016.75"/>
<text xml:space="preserve" text-anchor="start" x="330.88" y="-1027.75" font-family="Arial" font-size="14.00">full_name</text>
<polygon fill="none" stroke="black" points="433.38,-1016.75 433.38,-1048.5 546.12,-1048.5 546.12,-1016.75 433.38,-1016.75"/>
<text xml:space="preserve" text-anchor="start" x="441.38" y="-1027.75" font-family="Arial" font-size="14.00">VARCHAR(150)</text>
<polygon fill="none" stroke="black" points="322.88,-985 322.88,-1016.75 433.38,-1016.75 433.38,-985 322.88,-985"/>
<text xml:space="preserve" text-anchor="start" x="330.88" y="-996" font-family="Arial" font-size="14.00">is_active</text>
<polygon fill="none" stroke="black" points="433.38,-985 433.38,-1016.75 546.12,-1016.75 546.12,-985 433.38,-985"/>
<text xml:space="preserve" text-anchor="start" x="441.38" y="-996" font-family="Arial" font-size="14.00">BOOLEAN</text>
<polygon fill="none" stroke="black" points="322.88,-953.25 322.88,-985 433.38,-985 433.38,-953.25 322.88,-953.25"/>
<text xml:space="preserve" text-anchor="start" x="330.88" y="-964.25" font-family="Arial" font-size="14.00">created_at</text>
<polygon fill="none" stroke="black" points="433.38,-953.25 433.38,-985 546.12,-985 546.12,-953.25 433.38,-953.25"/>
<text xml:space="preserve" text-anchor="start" x="441.38" y="-964.25" font-family="Arial" font-size="14.00">TIMESTAMPTZ</text>
</g>
<!-- roles&#45;&gt;users -->
<g id="edge1" class="edge">
<title>roles:e&#45;&gt;users:w</title>
<g id="a_edge1"><a xlink:title="roles 1 — 0..N users (role_id)">
<path fill="none" stroke="#64748b" d="M215.62,-1127.25C255.77,-1127.3 270.88,-1127.76 308.27,-1127.86"/>
<polygon fill="#64748b" stroke="#64748b" points="209.49,-1130.75 209.49,-1123.75 210.89,-1123.75 210.89,-1130.75 209.49,-1130.75"/>
<polyline fill="none" stroke="#64748b" points="208.79,-1127.25 212.29,-1127.25"/>
<polygon fill="#64748b" stroke="#64748b" points="212.99,-1130.75 212.99,-1123.75 214.39,-1123.75 214.39,-1130.75 212.99,-1130.75"/>
<polyline fill="none" stroke="#64748b" points="212.29,-1127.25 215.79,-1127.25"/>
<ellipse fill="none" stroke="#64748b" cx="318.58" cy="-1127.87" rx="2.8" ry="2.8"/>
<polygon fill="#64748b" stroke="#64748b" points="307.94,-1127.86 314.94,-1131.02 311.78,-1127.86 314.61,-1127.87 314.61,-1127.87 314.61,-1127.87 311.78,-1127.86 314.94,-1124.72 307.94,-1127.86"/>
</a>
</g>
</g>
<!-- alerts -->
<g id="node7" class="node">
<title>alerts</title>
<polygon fill="#123b62" stroke="none" points="633.75,-556.62 633.75,-588.38 902,-588.38 902,-556.62 633.75,-556.62"/>
<polygon fill="none" stroke="black" points="633.75,-556.62 633.75,-588.38 902,-588.38 902,-556.62 633.75,-556.62"/>
<text xml:space="preserve" text-anchor="start" x="749.88" y="-568.08" font-family="Arial" font-weight="bold" font-size="14.00" fill="white">alerts</text>
<polygon fill="none" stroke="black" points="633.75,-524.88 633.75,-556.62 790,-556.62 790,-524.88 633.75,-524.88"/>
<text xml:space="preserve" text-anchor="start" x="641.75" y="-535.88" font-family="Arial" font-size="14.00">PK id</text>
<polygon fill="none" stroke="black" points="790,-524.88 790,-556.62 902,-556.62 902,-524.88 790,-524.88"/>
<text xml:space="preserve" text-anchor="start" x="798" y="-535.88" font-family="Arial" font-size="14.00">BIGINT</text>
<polygon fill="none" stroke="black" points="633.75,-493.12 633.75,-524.88 790,-524.88 790,-493.12 633.75,-493.12"/>
<text xml:space="preserve" text-anchor="start" x="641.75" y="-504.12" font-family="Arial" font-size="14.00">FK rule_id</text>
<polygon fill="none" stroke="black" points="790,-493.12 790,-524.88 902,-524.88 902,-493.12 790,-493.12"/>
<text xml:space="preserve" text-anchor="start" x="798" y="-504.12" font-family="Arial" font-size="14.00">BIGINT</text>
<polygon fill="none" stroke="black" points="633.75,-461.38 633.75,-493.12 790,-493.12 790,-461.38 633.75,-461.38"/>
<text xml:space="preserve" text-anchor="start" x="641.75" y="-472.38" font-family="Arial" font-size="14.00">opened_at</text>
<polygon fill="none" stroke="black" points="790,-461.38 790,-493.12 902,-493.12 902,-461.38 790,-461.38"/>
<text xml:space="preserve" text-anchor="start" x="798" y="-472.38" font-family="Arial" font-size="14.00">TIMESTAMPTZ</text>
<polygon fill="none" stroke="black" points="633.75,-429.62 633.75,-461.38 790,-461.38 790,-429.62 633.75,-429.62"/>
<text xml:space="preserve" text-anchor="start" x="641.75" y="-440.62" font-family="Arial" font-size="14.00">FK acknowledged_by ?</text>
<polygon fill="none" stroke="black" points="790,-429.62 790,-461.38 902,-461.38 902,-429.62 790,-429.62"/>
<text xml:space="preserve" text-anchor="start" x="798" y="-440.62" font-family="Arial" font-size="14.00">BIGINT</text>
<polygon fill="none" stroke="black" points="633.75,-397.88 633.75,-429.62 790,-429.62 790,-397.88 633.75,-397.88"/>
<text xml:space="preserve" text-anchor="start" x="641.75" y="-408.88" font-family="Arial" font-size="14.00">acknowledged_at ?</text>
<polygon fill="none" stroke="black" points="790,-397.88 790,-429.62 902,-429.62 902,-397.88 790,-397.88"/>
<text xml:space="preserve" text-anchor="start" x="798" y="-408.88" font-family="Arial" font-size="14.00">TIMESTAMPTZ</text>
<polygon fill="none" stroke="black" points="633.75,-366.12 633.75,-397.88 790,-397.88 790,-366.12 633.75,-366.12"/>
<text xml:space="preserve" text-anchor="start" x="641.75" y="-377.12" font-family="Arial" font-size="14.00">resolved_at ?</text>
<polygon fill="none" stroke="black" points="790,-366.12 790,-397.88 902,-397.88 902,-366.12 790,-366.12"/>
<text xml:space="preserve" text-anchor="start" x="798" y="-377.12" font-family="Arial" font-size="14.00">TIMESTAMPTZ</text>
</g>
<!-- users&#45;&gt;alerts -->
<g id="edge7" class="edge">
<title>users:e&#45;&gt;alerts:w</title>
<g id="a_edge7"><a xlink:title="users 0..1 — 0..N alerts (acknowledged_by)">
<path fill="none" stroke="#64748b" d="M556.81,-1079.13C675.44,-1050.7 507.83,-488.41 619.93,-447.81"/>
<ellipse fill="none" stroke="#64748b" cx="550.26" cy="-1079.88" rx="2.8" ry="2.8"/>
<polygon fill="#64748b" stroke="#64748b" points="554.63,-1082.9 553.84,-1075.95 555.23,-1075.79 556.02,-1082.75 554.63,-1082.9"/>
<polyline fill="none" stroke="#64748b" points="553.54,-1079.5 557.02,-1079.11"/>
<ellipse fill="none" stroke="#64748b" cx="630.5" cy="-446.04" rx="2.8" ry="2.8"/>
<polygon fill="#64748b" stroke="#64748b" points="620.01,-447.8 627.43,-449.75 623.79,-447.17 626.58,-446.7 626.58,-446.7 626.58,-446.7 623.79,-447.17 626.39,-443.54 620.01,-447.8"/>
</a>
</g>
</g>
<!-- operations -->
<g id="node9" class="node">
<title>operations</title>
<polygon fill="#123b62" stroke="none" points="649.12,-1304.12 649.12,-1335.88 886.62,-1335.88 886.62,-1304.12 649.12,-1304.12"/>
<polygon fill="none" stroke="black" points="649.12,-1304.12 649.12,-1335.88 886.62,-1335.88 886.62,-1304.12 649.12,-1304.12"/>
<text xml:space="preserve" text-anchor="start" x="733.38" y="-1315.58" font-family="Arial" font-weight="bold" font-size="14.00" fill="white">operations</text>
<polygon fill="none" stroke="black" points="649.12,-1272.38 649.12,-1304.12 773.88,-1304.12 773.88,-1272.38 649.12,-1272.38"/>
<text xml:space="preserve" text-anchor="start" x="657.12" y="-1283.38" font-family="Arial" font-size="14.00">PK id</text>
<polygon fill="none" stroke="black" points="773.88,-1272.38 773.88,-1304.12 886.62,-1304.12 886.62,-1272.38 773.88,-1272.38"/>
<text xml:space="preserve" text-anchor="start" x="781.88" y="-1283.38" font-family="Arial" font-size="14.00">BIGINT</text>
<polygon fill="none" stroke="black" points="649.12,-1240.62 649.12,-1272.38 773.88,-1272.38 773.88,-1240.62 649.12,-1240.62"/>
<text xml:space="preserve" text-anchor="start" x="657.12" y="-1251.62" font-family="Arial" font-size="14.00">FK server_id</text>
<polygon fill="none" stroke="black" points="773.88,-1240.62 773.88,-1272.38 886.62,-1272.38 886.62,-1240.62 773.88,-1240.62"/>
<text xml:space="preserve" text-anchor="start" x="781.88" y="-1251.62" font-family="Arial" font-size="14.00">BIGINT</text>
<polygon fill="none" stroke="black" points="649.12,-1208.88 649.12,-1240.62 773.88,-1240.62 773.88,-1208.88 649.12,-1208.88"/>
<text xml:space="preserve" text-anchor="start" x="657.12" y="-1219.88" font-family="Arial" font-size="14.00">FK requested_by</text>
<polygon fill="none" stroke="black" points="773.88,-1208.88 773.88,-1240.62 886.62,-1240.62 886.62,-1208.88 773.88,-1208.88"/>
<text xml:space="preserve" text-anchor="start" x="781.88" y="-1219.88" font-family="Arial" font-size="14.00">BIGINT</text>
<polygon fill="none" stroke="black" points="649.12,-1177.12 649.12,-1208.88 773.88,-1208.88 773.88,-1177.12 649.12,-1177.12"/>
<text xml:space="preserve" text-anchor="start" x="657.12" y="-1188.12" font-family="Arial" font-size="14.00">kind</text>
<polygon fill="none" stroke="black" points="773.88,-1177.12 773.88,-1208.88 886.62,-1208.88 886.62,-1177.12 773.88,-1177.12"/>
<text xml:space="preserve" text-anchor="start" x="781.88" y="-1188.12" font-family="Arial" font-size="14.00">VARCHAR(30)</text>
<polygon fill="none" stroke="black" points="649.12,-1145.38 649.12,-1177.12 773.88,-1177.12 773.88,-1145.38 649.12,-1145.38"/>
<text xml:space="preserve" text-anchor="start" x="657.12" y="-1156.38" font-family="Arial" font-size="14.00">service_name ?</text>
<polygon fill="none" stroke="black" points="773.88,-1145.38 773.88,-1177.12 886.62,-1177.12 886.62,-1145.38 773.88,-1145.38"/>
<text xml:space="preserve" text-anchor="start" x="781.88" y="-1156.38" font-family="Arial" font-size="14.00">VARCHAR(100)</text>
<polygon fill="none" stroke="black" points="649.12,-1113.62 649.12,-1145.38 773.88,-1145.38 773.88,-1113.62 649.12,-1113.62"/>
<text xml:space="preserve" text-anchor="start" x="657.12" y="-1124.62" font-family="Arial" font-size="14.00">status</text>
<polygon fill="none" stroke="black" points="773.88,-1113.62 773.88,-1145.38 886.62,-1145.38 886.62,-1113.62 773.88,-1113.62"/>
<text xml:space="preserve" text-anchor="start" x="781.88" y="-1124.62" font-family="Arial" font-size="14.00">VARCHAR(12)</text>
<polygon fill="none" stroke="black" points="649.12,-1081.88 649.12,-1113.62 773.88,-1113.62 773.88,-1081.88 649.12,-1081.88"/>
<text xml:space="preserve" text-anchor="start" x="657.12" y="-1092.88" font-family="Arial" font-size="14.00">requested_at</text>
<polygon fill="none" stroke="black" points="773.88,-1081.88 773.88,-1113.62 886.62,-1113.62 886.62,-1081.88 773.88,-1081.88"/>
<text xml:space="preserve" text-anchor="start" x="781.88" y="-1092.88" font-family="Arial" font-size="14.00">TIMESTAMPTZ</text>
<polygon fill="none" stroke="black" points="649.12,-1050.12 649.12,-1081.88 773.88,-1081.88 773.88,-1050.12 649.12,-1050.12"/>
<text xml:space="preserve" text-anchor="start" x="657.12" y="-1061.12" font-family="Arial" font-size="14.00">started_at ?</text>
<polygon fill="none" stroke="black" points="773.88,-1050.12 773.88,-1081.88 886.62,-1081.88 886.62,-1050.12 773.88,-1050.12"/>
<text xml:space="preserve" text-anchor="start" x="781.88" y="-1061.12" font-family="Arial" font-size="14.00">TIMESTAMPTZ</text>
<polygon fill="none" stroke="black" points="649.12,-1018.38 649.12,-1050.12 773.88,-1050.12 773.88,-1018.38 649.12,-1018.38"/>
<text xml:space="preserve" text-anchor="start" x="657.12" y="-1029.38" font-family="Arial" font-size="14.00">finished_at ?</text>
<polygon fill="none" stroke="black" points="773.88,-1018.38 773.88,-1050.12 886.62,-1050.12 886.62,-1018.38 773.88,-1018.38"/>
<text xml:space="preserve" text-anchor="start" x="781.88" y="-1029.38" font-family="Arial" font-size="14.00">TIMESTAMPTZ</text>
<polygon fill="none" stroke="black" points="649.12,-986.62 649.12,-1018.38 773.88,-1018.38 773.88,-986.62 649.12,-986.62"/>
<text xml:space="preserve" text-anchor="start" x="657.12" y="-997.62" font-family="Arial" font-size="14.00">result_summary ?</text>
<polygon fill="none" stroke="black" points="773.88,-986.62 773.88,-1018.38 886.62,-1018.38 886.62,-986.62 773.88,-986.62"/>
<text xml:space="preserve" text-anchor="start" x="781.88" y="-997.62" font-family="Arial" font-size="14.00">TEXT</text>
</g>
<!-- users&#45;&gt;operations -->
<g id="edge11" class="edge">
<title>users:e&#45;&gt;operations:w</title>
<g id="a_edge11"><a xlink:title="users 1 — 0..N operations (requested_by)">
<path fill="none" stroke="#64748b" d="M553.95,-1080.66C617.37,-1088.56 578.45,-1206.8 634.24,-1222.93"/>
<polygon fill="#64748b" stroke="#64748b" points="547.47,-1083.79 547.89,-1076.8 549.29,-1076.88 548.87,-1083.87 547.47,-1083.79"/>
<polyline fill="none" stroke="#64748b" points="546.98,-1080.25 550.48,-1080.46"/>
<polygon fill="#64748b" stroke="#64748b" points="550.97,-1083.99 551.38,-1077.01 552.78,-1077.09 552.36,-1084.08 550.97,-1083.99"/>
<polyline fill="none" stroke="#64748b" points="550.48,-1080.46 553.97,-1080.67"/>
<ellipse fill="none" stroke="#64748b" cx="644.85" cy="-1224.32" rx="2.8" ry="2.8"/>
<polygon fill="#64748b" stroke="#64748b" points="634.31,-1222.94 640.84,-1226.97 638.11,-1223.44 640.92,-1223.81 640.92,-1223.81 640.92,-1223.81 638.11,-1223.44 641.66,-1220.73 634.31,-1222.94"/>
</a>
</g>
</g>
<!-- audit_events -->
<g id="node10" class="node">
<title>audit_events</title>
<polygon fill="#123b62" stroke="none" points="663.75,-922.75 663.75,-954.5 872,-954.5 872,-922.75 663.75,-922.75"/>
<polygon fill="none" stroke="black" points="663.75,-922.75 663.75,-954.5 872,-954.5 872,-922.75 663.75,-922.75"/>
<text xml:space="preserve" text-anchor="start" x="726.62" y="-934.2" font-family="Arial" font-weight="bold" font-size="14.00" fill="white">audit_events</text>
<polygon fill="none" stroke="black" points="663.75,-891 663.75,-922.75 760,-922.75 760,-891 663.75,-891"/>
<text xml:space="preserve" text-anchor="start" x="671.75" y="-902" font-family="Arial" font-size="14.00">PK id</text>
<polygon fill="none" stroke="black" points="760,-891 760,-922.75 872,-922.75 872,-891 760,-891"/>
<text xml:space="preserve" text-anchor="start" x="768" y="-902" font-family="Arial" font-size="14.00">BIGINT</text>
<polygon fill="none" stroke="black" points="663.75,-859.25 663.75,-891 760,-891 760,-859.25 663.75,-859.25"/>
<text xml:space="preserve" text-anchor="start" x="671.75" y="-870.25" font-family="Arial" font-size="14.00">FK actor_id ?</text>
<polygon fill="none" stroke="black" points="760,-859.25 760,-891 872,-891 872,-859.25 760,-859.25"/>
<text xml:space="preserve" text-anchor="start" x="768" y="-870.25" font-family="Arial" font-size="14.00">BIGINT</text>
<polygon fill="none" stroke="black" points="663.75,-827.5 663.75,-859.25 760,-859.25 760,-827.5 663.75,-827.5"/>
<text xml:space="preserve" text-anchor="start" x="671.75" y="-838.5" font-family="Arial" font-size="14.00">event_type</text>
<polygon fill="none" stroke="black" points="760,-827.5 760,-859.25 872,-859.25 872,-827.5 760,-827.5"/>
<text xml:space="preserve" text-anchor="start" x="768" y="-838.5" font-family="Arial" font-size="14.00">VARCHAR(80)</text>
<polygon fill="none" stroke="black" points="663.75,-795.75 663.75,-827.5 760,-827.5 760,-795.75 663.75,-795.75"/>
<text xml:space="preserve" text-anchor="start" x="671.75" y="-806.75" font-family="Arial" font-size="14.00">description</text>
<polygon fill="none" stroke="black" points="760,-795.75 760,-827.5 872,-827.5 872,-795.75 760,-795.75"/>
<text xml:space="preserve" text-anchor="start" x="768" y="-806.75" font-family="Arial" font-size="14.00">TEXT</text>
<polygon fill="none" stroke="black" points="663.75,-764 663.75,-795.75 760,-795.75 760,-764 663.75,-764"/>
<text xml:space="preserve" text-anchor="start" x="671.75" y="-775" font-family="Arial" font-size="14.00">occurred_at</text>
<polygon fill="none" stroke="black" points="760,-764 760,-795.75 872,-795.75 872,-764 760,-764"/>
<text xml:space="preserve" text-anchor="start" x="768" y="-775" font-family="Arial" font-size="14.00">TIMESTAMPTZ</text>
</g>
<!-- users&#45;&gt;audit_events -->
<g id="edge12" class="edge">
<title>users:e&#45;&gt;audit_events:w</title>
<g id="a_edge12"><a xlink:title="users 0..1 — 0..N audit_events (actor_id)">
<path fill="none" stroke="#64748b" d="M557.04,-1079.55C641.18,-1067.11 569.42,-893.39 649.22,-876.45"/>
<ellipse fill="none" stroke="#64748b" cx="550.27" cy="-1080.02" rx="2.8" ry="2.8"/>
<polygon fill="#64748b" stroke="#64748b" points="554.51,-1083.23 554.02,-1076.25 555.42,-1076.15 555.91,-1083.14 554.51,-1083.23"/>
<polyline fill="none" stroke="#64748b" points="553.57,-1079.79 557.06,-1079.55"/>
<ellipse fill="none" stroke="#64748b" cx="659.47" cy="-875.45" rx="2.8" ry="2.8"/>
<polygon fill="#64748b" stroke="#64748b" points="648.88,-876.48 656.16,-878.94 652.7,-876.11 655.52,-875.83 655.52,-875.83 655.52,-875.83 652.7,-876.11 655.54,-872.67 648.88,-876.48"/>
</a>
</g>
</g>
<!-- servers -->
<g id="node3" class="node">
<title>servers</title>
<polygon fill="#123b62" stroke="none" points="0,-833.5 0,-865.25 235.25,-865.25 235.25,-833.5 0,-833.5"/>
<polygon fill="none" stroke="black" points="0,-833.5 0,-865.25 235.25,-865.25 235.25,-833.5 0,-833.5"/>
<text xml:space="preserve" text-anchor="start" x="93.62" y="-844.95" font-family="Arial" font-weight="bold" font-size="14.00" fill="white">servers</text>
<polygon fill="none" stroke="black" points="0,-801.75 0,-833.5 122.5,-833.5 122.5,-801.75 0,-801.75"/>
<text xml:space="preserve" text-anchor="start" x="8" y="-812.75" font-family="Arial" font-size="14.00">PK id</text>
<polygon fill="none" stroke="black" points="122.5,-801.75 122.5,-833.5 235.25,-833.5 235.25,-801.75 122.5,-801.75"/>
<text xml:space="preserve" text-anchor="start" x="130.5" y="-812.75" font-family="Arial" font-size="14.00">BIGINT</text>
<polygon fill="none" stroke="black" points="0,-770 0,-801.75 122.5,-801.75 122.5,-770 0,-770"/>
<text xml:space="preserve" text-anchor="start" x="8" y="-781" font-family="Arial" font-size="14.00">UK name</text>
<polygon fill="none" stroke="black" points="122.5,-770 122.5,-801.75 235.25,-801.75 235.25,-770 122.5,-770"/>
<text xml:space="preserve" text-anchor="start" x="130.5" y="-781" font-family="Arial" font-size="14.00">VARCHAR(100)</text>
<polygon fill="none" stroke="black" points="0,-738.25 0,-770 122.5,-770 122.5,-738.25 0,-738.25"/>
<text xml:space="preserve" text-anchor="start" x="8" y="-749.25" font-family="Arial" font-size="14.00">UK hostname</text>
<polygon fill="none" stroke="black" points="122.5,-738.25 122.5,-770 235.25,-770 235.25,-738.25 122.5,-738.25"/>
<text xml:space="preserve" text-anchor="start" x="130.5" y="-749.25" font-family="Arial" font-size="14.00">VARCHAR(253)</text>
<polygon fill="none" stroke="black" points="0,-706.5 0,-738.25 122.5,-738.25 122.5,-706.5 0,-706.5"/>
<text xml:space="preserve" text-anchor="start" x="8" y="-717.5" font-family="Arial" font-size="14.00">UK agent_identity</text>
<polygon fill="none" stroke="black" points="122.5,-706.5 122.5,-738.25 235.25,-738.25 235.25,-706.5 122.5,-706.5"/>
<text xml:space="preserve" text-anchor="start" x="130.5" y="-717.5" font-family="Arial" font-size="14.00">VARCHAR(200)</text>
<polygon fill="none" stroke="black" points="0,-674.75 0,-706.5 122.5,-706.5 122.5,-674.75 0,-674.75"/>
<text xml:space="preserve" text-anchor="start" x="8" y="-685.75" font-family="Arial" font-size="14.00">is_active</text>
<polygon fill="none" stroke="black" points="122.5,-674.75 122.5,-706.5 235.25,-706.5 235.25,-674.75 122.5,-674.75"/>
<text xml:space="preserve" text-anchor="start" x="130.5" y="-685.75" font-family="Arial" font-size="14.00">BOOLEAN</text>
<polygon fill="none" stroke="black" points="0,-643 0,-674.75 122.5,-674.75 122.5,-643 0,-643"/>
<text xml:space="preserve" text-anchor="start" x="8" y="-654" font-family="Arial" font-size="14.00">last_seen_at ?</text>
<polygon fill="none" stroke="black" points="122.5,-643 122.5,-674.75 235.25,-674.75 235.25,-643 122.5,-643"/>
<text xml:space="preserve" text-anchor="start" x="130.5" y="-654" font-family="Arial" font-size="14.00">TIMESTAMPTZ</text>
<polygon fill="none" stroke="black" points="0,-611.25 0,-643 122.5,-643 122.5,-611.25 0,-611.25"/>
<text xml:space="preserve" text-anchor="start" x="8" y="-622.25" font-family="Arial" font-size="14.00">created_at</text>
<polygon fill="none" stroke="black" points="122.5,-611.25 122.5,-643 235.25,-643 235.25,-611.25 122.5,-611.25"/>
<text xml:space="preserve" text-anchor="start" x="130.5" y="-622.25" font-family="Arial" font-size="14.00">TIMESTAMPTZ</text>
</g>
<!-- metric_samples -->
<g id="node5" class="node">
<title>metric_samples</title>
<polygon fill="#123b62" stroke="none" points="314.25,-158.75 314.25,-190.5 554.75,-190.5 554.75,-158.75 314.25,-158.75"/>
<polygon fill="none" stroke="black" points="314.25,-158.75 314.25,-190.5 554.75,-190.5 554.75,-158.75 314.25,-158.75"/>
<text xml:space="preserve" text-anchor="start" x="382.75" y="-170.2" font-family="Arial" font-weight="bold" font-size="14.00" fill="white">metric_samples</text>
<polygon fill="none" stroke="black" points="314.25,-127 314.25,-158.75 439.75,-158.75 439.75,-127 314.25,-127"/>
<text xml:space="preserve" text-anchor="start" x="322.25" y="-138" font-family="Arial" font-size="14.00">PK id</text>
<polygon fill="none" stroke="black" points="439.75,-127 439.75,-158.75 554.75,-158.75 554.75,-127 439.75,-127"/>
<text xml:space="preserve" text-anchor="start" x="447.75" y="-138" font-family="Arial" font-size="14.00">BIGINT</text>
<polygon fill="none" stroke="black" points="314.25,-95.25 314.25,-127 439.75,-127 439.75,-95.25 314.25,-95.25"/>
<text xml:space="preserve" text-anchor="start" x="322.25" y="-106.25" font-family="Arial" font-size="14.00">FK server_id</text>
<polygon fill="none" stroke="black" points="439.75,-95.25 439.75,-127 554.75,-127 554.75,-95.25 439.75,-95.25"/>
<text xml:space="preserve" text-anchor="start" x="447.75" y="-106.25" font-family="Arial" font-size="14.00">BIGINT</text>
<polygon fill="none" stroke="black" points="314.25,-63.5 314.25,-95.25 439.75,-95.25 439.75,-63.5 314.25,-63.5"/>
<text xml:space="preserve" text-anchor="start" x="322.25" y="-74.5" font-family="Arial" font-size="14.00">FK metric_type_id</text>
<polygon fill="none" stroke="black" points="439.75,-63.5 439.75,-95.25 554.75,-95.25 554.75,-63.5 439.75,-63.5"/>
<text xml:space="preserve" text-anchor="start" x="447.75" y="-74.5" font-family="Arial" font-size="14.00">BIGINT</text>
<polygon fill="none" stroke="black" points="314.25,-31.75 314.25,-63.5 439.75,-63.5 439.75,-31.75 314.25,-31.75"/>
<text xml:space="preserve" text-anchor="start" x="322.25" y="-42.75" font-family="Arial" font-size="14.00">collected_at</text>
<polygon fill="none" stroke="black" points="439.75,-31.75 439.75,-63.5 554.75,-63.5 554.75,-31.75 439.75,-31.75"/>
<text xml:space="preserve" text-anchor="start" x="447.75" y="-42.75" font-family="Arial" font-size="14.00">TIMESTAMPTZ</text>
<polygon fill="none" stroke="black" points="314.25,0 314.25,-31.75 439.75,-31.75 439.75,0 314.25,0"/>
<text xml:space="preserve" text-anchor="start" x="322.25" y="-11" font-family="Arial" font-size="14.00">value</text>
<polygon fill="none" stroke="black" points="439.75,0 439.75,-31.75 554.75,-31.75 554.75,0 439.75,0"/>
<text xml:space="preserve" text-anchor="start" x="447.75" y="-11" font-family="Arial" font-size="14.00">NUMERIC(14,4)</text>
</g>
<!-- servers&#45;&gt;metric_samples -->
<g id="edge2" class="edge">
<title>servers:e&#45;&gt;metric_samples:w</title>
<g id="a_edge2"><a xlink:title="servers 1 — 0..N metric_samples (server_id)">
<path fill="none" stroke="#64748b" d="M241.97,-737.74C364.51,-718.33 189.65,-154.19 300.54,-113.44"/>
<polygon fill="#64748b" stroke="#64748b" points="236.21,-741.69 235.68,-734.71 237.08,-734.6 237.61,-741.58 236.21,-741.69"/>
<polyline fill="none" stroke="#64748b" points="235.25,-738.25 238.74,-737.98"/>
<polygon fill="#64748b" stroke="#64748b" points="239.7,-741.42 239.17,-734.44 240.57,-734.33 241.1,-741.31 239.7,-741.42"/>
<polyline fill="none" stroke="#64748b" points="238.74,-737.98 242.23,-737.72"/>
<ellipse fill="none" stroke="#64748b" cx="311" cy="-111.68" rx="2.8" ry="2.8"/>
<polygon fill="#64748b" stroke="#64748b" points="300.51,-113.45 307.94,-115.39 304.29,-112.81 307.08,-112.34 307.08,-112.34 307.08,-112.34 304.29,-112.81 306.89,-109.18 300.51,-113.45"/>
</a>
</g>
</g>
<!-- alert_rules -->
<g id="node6" class="node">
<title>alert_rules</title>
<polygon fill="#123b62" stroke="none" points="314.25,-476.38 314.25,-508.12 554.75,-508.12 554.75,-476.38 314.25,-476.38"/>
<polygon fill="none" stroke="black" points="314.25,-476.38 314.25,-508.12 554.75,-508.12 554.75,-476.38 314.25,-476.38"/>
<text xml:space="preserve" text-anchor="start" x="400.38" y="-487.82" font-family="Arial" font-weight="bold" font-size="14.00" fill="white">alert_rules</text>
<polygon fill="none" stroke="black" points="314.25,-444.62 314.25,-476.38 439.75,-476.38 439.75,-444.62 314.25,-444.62"/>
<text xml:space="preserve" text-anchor="start" x="322.25" y="-455.62" font-family="Arial" font-size="14.00">PK id</text>
<polygon fill="none" stroke="black" points="439.75,-444.62 439.75,-476.38 554.75,-476.38 554.75,-444.62 439.75,-444.62"/>
<text xml:space="preserve" text-anchor="start" x="447.75" y="-455.62" font-family="Arial" font-size="14.00">BIGINT</text>
<polygon fill="none" stroke="black" points="314.25,-412.88 314.25,-444.62 439.75,-444.62 439.75,-412.88 314.25,-412.88"/>
<text xml:space="preserve" text-anchor="start" x="322.25" y="-423.88" font-family="Arial" font-size="14.00">FK server_id</text>
<polygon fill="none" stroke="black" points="439.75,-412.88 439.75,-444.62 554.75,-444.62 554.75,-412.88 439.75,-412.88"/>
<text xml:space="preserve" text-anchor="start" x="447.75" y="-423.88" font-family="Arial" font-size="14.00">BIGINT</text>
<polygon fill="none" stroke="black" points="314.25,-381.12 314.25,-412.88 439.75,-412.88 439.75,-381.12 314.25,-381.12"/>
<text xml:space="preserve" text-anchor="start" x="322.25" y="-392.12" font-family="Arial" font-size="14.00">FK metric_type_id</text>
<polygon fill="none" stroke="black" points="439.75,-381.12 439.75,-412.88 554.75,-412.88 554.75,-381.12 439.75,-381.12"/>
<text xml:space="preserve" text-anchor="start" x="447.75" y="-392.12" font-family="Arial" font-size="14.00">BIGINT</text>
<polygon fill="none" stroke="black" points="314.25,-349.38 314.25,-381.12 439.75,-381.12 439.75,-349.38 314.25,-349.38"/>
<text xml:space="preserve" text-anchor="start" x="322.25" y="-360.38" font-family="Arial" font-size="14.00">name</text>
<polygon fill="none" stroke="black" points="439.75,-349.38 439.75,-381.12 554.75,-381.12 554.75,-349.38 439.75,-349.38"/>
<text xml:space="preserve" text-anchor="start" x="447.75" y="-360.38" font-family="Arial" font-size="14.00">VARCHAR(150)</text>
<polygon fill="none" stroke="black" points="314.25,-317.62 314.25,-349.38 439.75,-349.38 439.75,-317.62 314.25,-317.62"/>
<text xml:space="preserve" text-anchor="start" x="322.25" y="-328.62" font-family="Arial" font-size="14.00">threshold</text>
<polygon fill="none" stroke="black" points="439.75,-317.62 439.75,-349.38 554.75,-349.38 554.75,-317.62 439.75,-317.62"/>
<text xml:space="preserve" text-anchor="start" x="447.75" y="-328.62" font-family="Arial" font-size="14.00">NUMERIC(14,4)</text>
<polygon fill="none" stroke="black" points="314.25,-285.88 314.25,-317.62 439.75,-317.62 439.75,-285.88 314.25,-285.88"/>
<text xml:space="preserve" text-anchor="start" x="322.25" y="-296.88" font-family="Arial" font-size="14.00">duration_seconds</text>
<polygon fill="none" stroke="black" points="439.75,-285.88 439.75,-317.62 554.75,-317.62 554.75,-285.88 439.75,-285.88"/>
<text xml:space="preserve" text-anchor="start" x="447.75" y="-296.88" font-family="Arial" font-size="14.00">INTEGER</text>
<polygon fill="none" stroke="black" points="314.25,-254.12 314.25,-285.88 439.75,-285.88 439.75,-254.12 314.25,-254.12"/>
<text xml:space="preserve" text-anchor="start" x="322.25" y="-265.12" font-family="Arial" font-size="14.00">severity</text>
<polygon fill="none" stroke="black" points="439.75,-254.12 439.75,-285.88 554.75,-285.88 554.75,-254.12 439.75,-254.12"/>
<text xml:space="preserve" text-anchor="start" x="447.75" y="-265.12" font-family="Arial" font-size="14.00">VARCHAR(10)</text>
<polygon fill="none" stroke="black" points="314.25,-222.38 314.25,-254.12 439.75,-254.12 439.75,-222.38 314.25,-222.38"/>
<text xml:space="preserve" text-anchor="start" x="322.25" y="-233.38" font-family="Arial" font-size="14.00">is_enabled</text>
<polygon fill="none" stroke="black" points="439.75,-222.38 439.75,-254.12 554.75,-254.12 554.75,-222.38 439.75,-222.38"/>
<text xml:space="preserve" text-anchor="start" x="447.75" y="-233.38" font-family="Arial" font-size="14.00">BOOLEAN</text>
</g>
<!-- servers&#45;&gt;alert_rules -->
<g id="edge4" class="edge">
<title>servers:e&#45;&gt;alert_rules:w</title>
<g id="a_edge4"><a xlink:title="servers 1 — 0..N alert_rules (server_id)">
<path fill="none" stroke="#64748b" d="M242.04,-738C365.87,-728.42 188.37,-450 300.4,-429.89"/>
<polygon fill="#64748b" stroke="#64748b" points="236.08,-741.72 235.82,-734.73 237.22,-734.67 237.48,-741.67 236.08,-741.72"/>
<polyline fill="none" stroke="#64748b" points="235.25,-738.25 238.75,-738.12"/>
<polygon fill="#64748b" stroke="#64748b" points="239.58,-741.59 239.32,-734.6 240.72,-734.54 240.98,-741.54 239.58,-741.59"/>
<polyline fill="none" stroke="#64748b" points="238.75,-738.12 242.25,-737.99"/>
<ellipse fill="none" stroke="#64748b" cx="310.96" cy="-429.02" rx="2.8" ry="2.8"/>
<polygon fill="#64748b" stroke="#64748b" points="300.36,-429.9 307.6,-432.46 304.18,-429.58 307.01,-429.35 307.01,-429.35 307.01,-429.35 304.18,-429.58 307.08,-426.18 300.36,-429.9"/>
</a>
</g>
</g>
<!-- recommendations -->
<g id="node8" class="node">
<title>recommendations</title>
<polygon fill="#123b62" stroke="none" points="314.25,-889 314.25,-920.75 554.75,-920.75 554.75,-889 314.25,-889"/>
<polygon fill="none" stroke="black" points="314.25,-889 314.25,-920.75 554.75,-920.75 554.75,-889 314.25,-889"/>
<text xml:space="preserve" text-anchor="start" x="375.62" y="-900.45" font-family="Arial" font-weight="bold" font-size="14.00" fill="white">recommendations</text>
<polygon fill="none" stroke="black" points="314.25,-857.25 314.25,-889 439.75,-889 439.75,-857.25 314.25,-857.25"/>
<text xml:space="preserve" text-anchor="start" x="322.25" y="-868.25" font-family="Arial" font-size="14.00">PK id</text>
<polygon fill="none" stroke="black" points="439.75,-857.25 439.75,-889 554.75,-889 554.75,-857.25 439.75,-857.25"/>
<text xml:space="preserve" text-anchor="start" x="447.75" y="-868.25" font-family="Arial" font-size="14.00">BIGINT</text>
<polygon fill="none" stroke="black" points="314.25,-825.5 314.25,-857.25 439.75,-857.25 439.75,-825.5 314.25,-825.5"/>
<text xml:space="preserve" text-anchor="start" x="322.25" y="-836.5" font-family="Arial" font-size="14.00">FK server_id</text>
<polygon fill="none" stroke="black" points="439.75,-825.5 439.75,-857.25 554.75,-857.25 554.75,-825.5 439.75,-825.5"/>
<text xml:space="preserve" text-anchor="start" x="447.75" y="-836.5" font-family="Arial" font-size="14.00">BIGINT</text>
<polygon fill="none" stroke="black" points="314.25,-793.75 314.25,-825.5 439.75,-825.5 439.75,-793.75 314.25,-793.75"/>
<text xml:space="preserve" text-anchor="start" x="322.25" y="-804.75" font-family="Arial" font-size="14.00">FK metric_type_id</text>
<polygon fill="none" stroke="black" points="439.75,-793.75 439.75,-825.5 554.75,-825.5 554.75,-793.75 439.75,-793.75"/>
<text xml:space="preserve" text-anchor="start" x="447.75" y="-804.75" font-family="Arial" font-size="14.00">BIGINT</text>
<polygon fill="none" stroke="black" points="314.25,-762 314.25,-793.75 439.75,-793.75 439.75,-762 314.25,-762"/>
<text xml:space="preserve" text-anchor="start" x="322.25" y="-773" font-family="Arial" font-size="14.00">algorithm_version</text>
<polygon fill="none" stroke="black" points="439.75,-762 439.75,-793.75 554.75,-793.75 554.75,-762 439.75,-762"/>
<text xml:space="preserve" text-anchor="start" x="447.75" y="-773" font-family="Arial" font-size="14.00">VARCHAR(50)</text>
<polygon fill="none" stroke="black" points="314.25,-730.25 314.25,-762 439.75,-762 439.75,-730.25 314.25,-730.25"/>
<text xml:space="preserve" text-anchor="start" x="322.25" y="-741.25" font-family="Arial" font-size="14.00">window_start</text>
<polygon fill="none" stroke="black" points="439.75,-730.25 439.75,-762 554.75,-762 554.75,-730.25 439.75,-730.25"/>
<text xml:space="preserve" text-anchor="start" x="447.75" y="-741.25" font-family="Arial" font-size="14.00">TIMESTAMPTZ</text>
<polygon fill="none" stroke="black" points="314.25,-698.5 314.25,-730.25 439.75,-730.25 439.75,-698.5 314.25,-698.5"/>
<text xml:space="preserve" text-anchor="start" x="322.25" y="-709.5" font-family="Arial" font-size="14.00">window_end</text>
<polygon fill="none" stroke="black" points="439.75,-698.5 439.75,-730.25 554.75,-730.25 554.75,-698.5 439.75,-698.5"/>
<text xml:space="preserve" text-anchor="start" x="447.75" y="-709.5" font-family="Arial" font-size="14.00">TIMESTAMPTZ</text>
<polygon fill="none" stroke="black" points="314.25,-666.75 314.25,-698.5 439.75,-698.5 439.75,-666.75 314.25,-666.75"/>
<text xml:space="preserve" text-anchor="start" x="322.25" y="-677.75" font-family="Arial" font-size="14.00">anomaly_score</text>
<polygon fill="none" stroke="black" points="439.75,-666.75 439.75,-698.5 554.75,-698.5 554.75,-666.75 439.75,-666.75"/>
<text xml:space="preserve" text-anchor="start" x="447.75" y="-677.75" font-family="Arial" font-size="14.00">NUMERIC(12,4)</text>
<polygon fill="none" stroke="black" points="314.25,-635 314.25,-666.75 439.75,-666.75 439.75,-635 314.25,-635"/>
<text xml:space="preserve" text-anchor="start" x="322.25" y="-646" font-family="Arial" font-size="14.00">explanation</text>
<polygon fill="none" stroke="black" points="439.75,-635 439.75,-666.75 554.75,-666.75 554.75,-635 439.75,-635"/>
<text xml:space="preserve" text-anchor="start" x="447.75" y="-646" font-family="Arial" font-size="14.00">TEXT</text>
<polygon fill="none" stroke="black" points="314.25,-603.25 314.25,-635 439.75,-635 439.75,-603.25 314.25,-603.25"/>
<text xml:space="preserve" text-anchor="start" x="322.25" y="-614.25" font-family="Arial" font-size="14.00">suggested_action</text>
<polygon fill="none" stroke="black" points="439.75,-603.25 439.75,-635 554.75,-635 554.75,-603.25 439.75,-603.25"/>
<text xml:space="preserve" text-anchor="start" x="447.75" y="-614.25" font-family="Arial" font-size="14.00">TEXT</text>
<polygon fill="none" stroke="black" points="314.25,-571.5 314.25,-603.25 439.75,-603.25 439.75,-571.5 314.25,-571.5"/>
<text xml:space="preserve" text-anchor="start" x="322.25" y="-582.5" font-family="Arial" font-size="14.00">status</text>
<polygon fill="none" stroke="black" points="439.75,-571.5 439.75,-603.25 554.75,-603.25 554.75,-571.5 439.75,-571.5"/>
<text xml:space="preserve" text-anchor="start" x="447.75" y="-582.5" font-family="Arial" font-size="14.00">VARCHAR(12)</text>
<polygon fill="none" stroke="black" points="314.25,-539.75 314.25,-571.5 439.75,-571.5 439.75,-539.75 314.25,-539.75"/>
<text xml:space="preserve" text-anchor="start" x="322.25" y="-550.75" font-family="Arial" font-size="14.00">created_at</text>
<polygon fill="none" stroke="black" points="439.75,-539.75 439.75,-571.5 554.75,-571.5 554.75,-539.75 439.75,-539.75"/>
<text xml:space="preserve" text-anchor="start" x="447.75" y="-550.75" font-family="Arial" font-size="14.00">TIMESTAMPTZ</text>
</g>
<!-- servers&#45;&gt;recommendations -->
<g id="edge8" class="edge">
<title>servers:e&#45;&gt;recommendations:w</title>
<g id="a_edge8"><a xlink:title="servers 1 — 0..N recommendations (server_id)">
<path fill="none" stroke="#64748b" d="M242.19,-738.8C285.54,-746.16 264.12,-824.42 300.85,-839.03"/>
<polygon fill="#64748b" stroke="#64748b" points="235.67,-741.79 236.23,-734.82 237.62,-734.93 237.06,-741.91 235.67,-741.79"/>
<polyline fill="none" stroke="#64748b" points="235.25,-738.25 238.74,-738.53"/>
<polygon fill="#64748b" stroke="#64748b" points="239.16,-742.07 239.72,-735.1 241.11,-735.21 240.55,-742.19 239.16,-742.07"/>
<polyline fill="none" stroke="#64748b" points="238.74,-738.53 242.23,-738.81"/>
<ellipse fill="none" stroke="#64748b" cx="311" cy="-840.81" rx="2.8" ry="2.8"/>
<polygon fill="#64748b" stroke="#64748b" points="300.52,-838.98 306.88,-843.28 304.3,-839.64 307.09,-840.12 307.09,-840.12 307.09,-840.12 304.3,-839.64 307.96,-837.08 300.52,-838.98"/>
</a>
</g>
</g>
<!-- servers&#45;&gt;operations -->
<g id="edge10" class="edge">
<title>servers:e&#45;&gt;operations:w</title>
<g id="a_edge10"><a xlink:title="servers 1 — 0..N operations (server_id)">
<path fill="none" stroke="#64748b" d="M241.99,-738.81C339.82,-755.72 236.38,-1150.08 314.25,-1223.25 419.53,-1322.17 494.22,-1260.64 634.36,-1256.69"/>
<polygon fill="#64748b" stroke="#64748b" points="235.66,-741.8 236.24,-734.82 237.63,-734.94 237.05,-741.91 235.66,-741.8"/>
<polyline fill="none" stroke="#64748b" points="235.25,-738.25 238.74,-738.54"/>
<polygon fill="#64748b" stroke="#64748b" points="239.15,-742.09 239.73,-735.11 241.12,-735.23 240.54,-742.2 239.15,-742.09"/>
<polyline fill="none" stroke="#64748b" points="238.74,-738.54 242.23,-738.83"/>
<ellipse fill="none" stroke="#64748b" cx="644.83" cy="-1256.55" rx="2.8" ry="2.8"/>
<polygon fill="#64748b" stroke="#64748b" points="634.19,-1256.7 641.24,-1259.75 638.03,-1256.64 640.86,-1256.6 640.86,-1256.6 640.86,-1256.6 638.03,-1256.64 641.15,-1253.45 634.19,-1256.7"/>
</a>
</g>
</g>
<!-- metric_types -->
<g id="node4" class="node">
<title>metric_types</title>
<polygon fill="#123b62" stroke="none" points="27.38,-443.88 27.38,-475.62 207.88,-475.62 207.88,-443.88 27.38,-443.88"/>
<polygon fill="none" stroke="black" points="27.38,-443.88 27.38,-475.62 207.88,-475.62 207.88,-443.88 27.38,-443.88"/>
<text xml:space="preserve" text-anchor="start" x="75.62" y="-455.32" font-family="Arial" font-weight="bold" font-size="14.00" fill="white">metric_types</text>
<polygon fill="none" stroke="black" points="27.38,-412.12 27.38,-443.88 95.12,-443.88 95.12,-412.12 27.38,-412.12"/>
<text xml:space="preserve" text-anchor="start" x="35.38" y="-423.12" font-family="Arial" font-size="14.00">PK id</text>
<polygon fill="none" stroke="black" points="95.12,-412.12 95.12,-443.88 207.88,-443.88 207.88,-412.12 95.12,-412.12"/>
<text xml:space="preserve" text-anchor="start" x="103.12" y="-423.12" font-family="Arial" font-size="14.00">BIGINT</text>
<polygon fill="none" stroke="black" points="27.38,-380.38 27.38,-412.12 95.12,-412.12 95.12,-380.38 27.38,-380.38"/>
<text xml:space="preserve" text-anchor="start" x="35.38" y="-391.38" font-family="Arial" font-size="14.00">UK code</text>
<polygon fill="none" stroke="black" points="95.12,-380.38 95.12,-412.12 207.88,-412.12 207.88,-380.38 95.12,-380.38"/>
<text xml:space="preserve" text-anchor="start" x="103.12" y="-391.38" font-family="Arial" font-size="14.00">VARCHAR(50)</text>
<polygon fill="none" stroke="black" points="27.38,-348.62 27.38,-380.38 95.12,-380.38 95.12,-348.62 27.38,-348.62"/>
<text xml:space="preserve" text-anchor="start" x="35.38" y="-359.62" font-family="Arial" font-size="14.00">name</text>
<polygon fill="none" stroke="black" points="95.12,-348.62 95.12,-380.38 207.88,-380.38 207.88,-348.62 95.12,-348.62"/>
<text xml:space="preserve" text-anchor="start" x="103.12" y="-359.62" font-family="Arial" font-size="14.00">VARCHAR(100)</text>
<polygon fill="none" stroke="black" points="27.38,-316.88 27.38,-348.62 95.12,-348.62 95.12,-316.88 27.38,-316.88"/>
<text xml:space="preserve" text-anchor="start" x="35.38" y="-327.88" font-family="Arial" font-size="14.00">unit</text>
<polygon fill="none" stroke="black" points="95.12,-316.88 95.12,-348.62 207.88,-348.62 207.88,-316.88 95.12,-316.88"/>
<text xml:space="preserve" text-anchor="start" x="103.12" y="-327.88" font-family="Arial" font-size="14.00">VARCHAR(20)</text>
</g>
<!-- metric_types&#45;&gt;metric_samples -->
<g id="edge3" class="edge">
<title>metric_types:e&#45;&gt;metric_samples:w</title>
<g id="a_edge3"><a xlink:title="metric_types 1 — 0..N metric_samples (metric_type_id)">
<path fill="none" stroke="#64748b" d="M215.5,-396.02C346.68,-386.75 180.29,-100.02 300.4,-80.43"/>
<polygon fill="#64748b" stroke="#64748b" points="209.61,-399.72 209.37,-392.73 210.77,-392.68 211.01,-399.68 209.61,-399.72"/>
<polyline fill="none" stroke="#64748b" points="208.79,-396.25 212.29,-396.13"/>
<polygon fill="#64748b" stroke="#64748b" points="213.11,-399.6 212.87,-392.61 214.27,-392.56 214.51,-399.56 213.11,-399.6"/>
<polyline fill="none" stroke="#64748b" points="212.29,-396.13 215.79,-396.01"/>
<ellipse fill="none" stroke="#64748b" cx="310.96" cy="-79.62" rx="2.8" ry="2.8"/>
<polygon fill="#64748b" stroke="#64748b" points="300.36,-80.43 307.57,-83.04 304.18,-80.14 307,-79.93 307,-79.93 307,-79.93 304.18,-80.14 307.1,-76.76 300.36,-80.43"/>
</a>
</g>
</g>
<!-- metric_types&#45;&gt;alert_rules -->
<g id="edge5" class="edge">
<title>metric_types:e&#45;&gt;alert_rules:w</title>
<g id="a_edge5"><a xlink:title="metric_types 1 — 0..N alert_rules (metric_type_id)">
<path fill="none" stroke="#64748b" d="M215.67,-396.26C252.27,-396.32 266.49,-396.85 300.26,-396.98"/>
<polygon fill="#64748b" stroke="#64748b" points="209.49,-399.75 209.49,-392.75 210.89,-392.75 210.89,-399.75 209.49,-399.75"/>
<polyline fill="none" stroke="#64748b" points="208.79,-396.25 212.29,-396.25"/>
<polygon fill="#64748b" stroke="#64748b" points="212.99,-399.75 212.99,-392.75 214.39,-392.75 214.39,-399.75 212.99,-399.75"/>
<polyline fill="none" stroke="#64748b" points="212.29,-396.25 215.79,-396.26"/>
<ellipse fill="none" stroke="#64748b" cx="310.95" cy="-396.99" rx="2.8" ry="2.8"/>
<polygon fill="#64748b" stroke="#64748b" points="300.32,-396.98 307.31,-400.14 304.15,-396.98 306.98,-396.99 306.98,-396.99 306.98,-396.99 304.15,-396.98 307.32,-393.84 300.32,-396.98"/>
</a>
</g>
</g>
<!-- metric_types&#45;&gt;recommendations -->
<g id="edge9" class="edge">
<title>metric_types:e&#45;&gt;recommendations:w</title>
<g id="a_edge9"><a xlink:title="metric_types 1 — 0..N recommendations (metric_type_id)">
<path fill="none" stroke="#64748b" d="M215.53,-396.43C387.13,-406.02 140.62,-788.63 300.36,-808.8"/>
<polygon fill="#64748b" stroke="#64748b" points="209.39,-399.77 209.58,-392.77 210.98,-392.81 210.79,-399.81 209.39,-399.77"/>
<polyline fill="none" stroke="#64748b" points="208.79,-396.25 212.29,-396.35"/>
<polygon fill="#64748b" stroke="#64748b" points="212.89,-399.86 213.08,-392.87 214.48,-392.9 214.29,-399.9 212.89,-399.86"/>
<polyline fill="none" stroke="#64748b" points="212.29,-396.35 215.79,-396.44"/>
<ellipse fill="none" stroke="#64748b" cx="310.96" cy="-809.43" rx="2.8" ry="2.8"/>
<polygon fill="#64748b" stroke="#64748b" points="300.34,-808.8 307.14,-812.36 304.17,-809.02 306.99,-809.19 306.99,-809.19 306.99,-809.19 304.17,-809.02 307.51,-806.07 300.34,-808.8"/>
</a>
</g>
</g>
<!-- alert_rules&#45;&gt;alerts -->
<g id="edge6" class="edge">
<title>alert_rules:e&#45;&gt;alerts:w</title>
<g id="a_edge6"><a xlink:title="alert_rules 1 — 0..N alerts (rule_id)">
<path fill="none" stroke="#64748b" d="M561.56,-365.71C618.78,-373.98 571.52,-489.75 620.11,-506.89"/>
<polygon fill="#64748b" stroke="#64748b" points="555.21,-368.79 555.69,-361.81 557.08,-361.9 556.61,-368.88 555.21,-368.79"/>
<polyline fill="none" stroke="#64748b" points="554.75,-365.25 558.24,-365.49"/>
<polygon fill="#64748b" stroke="#64748b" points="558.7,-369.03 559.18,-362.04 560.58,-362.14 560.1,-369.12 558.7,-369.03"/>
<polyline fill="none" stroke="#64748b" points="558.24,-365.49 561.73,-365.73"/>
<ellipse fill="none" stroke="#64748b" cx="630.49" cy="-508.49" rx="2.8" ry="2.8"/>
<polygon fill="#64748b" stroke="#64748b" points="619.98,-506.87 626.41,-511.05 623.77,-507.45 626.57,-507.89 626.57,-507.89 626.57,-507.89 623.77,-507.45 627.38,-504.82 619.98,-506.87"/>
</a>
</g>
</g>
</g>
</svg>
